# This file uses centimeters as units for non-parametric coordinates.

mtllib rainbow.mtl
g default
v 0.000000 -0.000000 10.990784
v 0.000000 -0.018356 -10.024512
v 0.000000 -0.034297 9.989240
v 0.000000 4.995255 0.039095
v 0.000000 0.000457 -11.007895
v 0.000000 6.014097 -0.051411
v 0.000000 4.995193 -0.008556
v 0.000000 6.014070 -0.008556
v 0.000000 3.999754 -5.508224
v 0.000000 5.154591 -5.508220
v 0.000000 2.297333 -8.257854
v 0.000000 3.681797 -8.257973
v 0.000000 2.989736 -9.066678
v 0.000000 2.989727 -8.258061
v 0.000000 2.989817 -7.376464
v 0.000000 4.773308 -2.758390
v 0.000000 5.828599 -2.758392
v 0.000000 4.015850 5.491161
v 0.000000 5.127304 5.491180
v 0.000000 4.784795 2.741285
v 0.000000 5.816401 2.741252
v 0.000000 2.299159 8.241063
v 0.000000 3.641493 8.240949
v 0.000000 2.989623 7.373707
v 0.000000 2.989727 8.240949
v 0.000000 2.989728 9.006768
v 0.500251 2.989727 8.240949
v 0.500251 3.641493 8.240949
v 0.500251 2.989728 9.006768
v 0.500251 4.995193 -0.008556
v 0.500251 4.773308 -2.758390
v 0.500251 5.828599 -2.758392
v 0.500251 2.989817 -7.376464
v 0.500251 2.989727 -8.258061
v 0.500251 3.681797 -8.257973
v 0.500251 2.989736 -9.066678
v 0.500251 -0.018356 -10.024512
v 0.500251 0.000457 -11.007895
v 0.500251 2.297333 -8.257854
v 0.500251 3.999754 -5.508224
v 0.500251 5.154591 -5.508220
v 0.500251 4.784795 2.741285
v 0.500251 5.816401 2.741252
v 0.500251 5.127304 5.491180
v 0.500251 4.995255 0.039095
v 0.500251 6.014070 -0.008556
v 0.500251 4.015850 5.491161
v 0.500251 2.299159 8.241063
v 0.500251 2.989623 7.373707
v 0.500251 6.014097 -0.051411
v 0.500251 -0.000000 10.990784
v 0.500251 -0.034297 9.989240
vt 0.005710 1.000000
vt 0.002738 0.044696
vt 0.000000 0.954468
vt 0.831575 0.502166
vt 0.005786 0.000000
vt 1.000000 0.498052
vt 0.831564 0.500000
vt 0.999993 0.500000
vt 0.666988 0.250000
vt 0.857918 0.250000
vt 0.385565 0.125000
vt 0.614439 0.125000
vt 0.500000 0.088243
vt 0.500000 0.125000
vt 0.500000 0.165078
vt 0.794879 0.375000
vt 0.969349 0.375000
vt 0.669629 0.750000
vt 0.853374 0.750000
vt 0.796771 0.625000
vt 0.967362 0.625000
vt 0.385808 0.875000
vt 0.607756 0.875000
vt 0.500000 0.835581
vt 0.500000 0.875000
vt 0.500000 0.909812
vt 0.500000 0.875000
vt 0.607756 0.875000
vt 0.500000 0.909812
vt 0.831564 0.500000
vt 0.794879 0.375000
vt 0.969349 0.375000
vt 0.500000 0.165078
vt 0.500000 0.125000
vt 0.614439 0.125000
vt 0.500000 0.088243
vt 0.002738 0.044696
vt 0.005786 0.000000
vt 0.385565 0.125000
vt 0.666988 0.250000
vt 0.857918 0.250000
vt 0.796771 0.625000
vt 0.967362 0.625000
vt 0.853374 0.750000
vt 0.831575 0.502166
vt 0.999993 0.500000
vt 0.669629 0.750000
vt 0.385808 0.875000
vt 0.500000 0.835581
vt 1.000000 0.498052
vt 0.005710 1.000000
vt 0.000000 0.954468
vt 0.607756 0.875000
vt 0.500000 0.909812
vt 0.831564 0.500000
vt 0.794879 0.375000
vt 0.500000 0.088243
vt 0.614439 0.125000
vt 0.002738 0.044696
vt 0.005786 0.000000
vt 0.500000 0.165078
vt 0.385565 0.125000
vt 0.666988 0.250000
vt 0.967362 0.625000
vt 0.853374 0.750000
vt 0.831575 0.502166
vt 0.385808 0.875000
vt 0.500000 0.835581
vt 1.000000 0.498052
vt 0.999993 0.500000
vt 0.969349 0.375000
vt 0.857918 0.250000
vt 0.669629 0.750000
vt 0.796771 0.625000
vt 0.005710 1.000000
vt 0.000000 0.954468
vn 1.000000 0.000000 0.000000
vn 1.000000 -0.000000 0.000000
vn 1.000000 -0.000000 0.000000
vn 1.000000 0.000000 0.000000
vn 1.000000 0.000000 0.000000
vn 1.000000 0.000000 0.000000
vn 1.000000 -0.000000 0.000000
vn 1.000000 0.000000 0.000000
vn 1.000000 -0.000000 0.000000
vn 1.000000 0.000000 0.000000
vn 1.000000 -0.000000 0.000000
vn 1.000000 -0.000000 0.000000
vn 1.000000 0.000000 0.000000
vn 1.000000 -0.000000 0.000000
vn 1.000000 0.000000 0.000000
vn 1.000000 0.000000 0.000000
vn 1.000000 0.000000 0.000000
vn 1.000000 0.000000 0.000000
vn 1.000000 0.000000 0.000000
vn 1.000000 0.000000 0.000000
vn 1.000000 -0.000000 0.000000
vn 1.000000 0.000000 0.000000
vn 1.000000 -0.000000 0.000000
vn 1.000000 0.000000 0.000000
vn 1.000000 -0.000000 0.000000
vn 1.000000 -0.000000 0.000000
vn -1.000000 0.000000 0.000000
vn -1.000000 0.000000 0.000000
vn -1.000000 0.000000 0.000000
vn -1.000000 0.000000 0.000000
vn -1.000000 0.000000 0.000000
vn -1.000000 0.000000 0.000000
vn -1.000000 0.000000 0.000000
vn -1.000000 0.000000 0.000000
vn -1.000000 0.000000 0.000000
vn -1.000000 0.000000 0.000000
vn -1.000000 0.000000 0.000000
vn -1.000000 0.000000 0.000000
vn -1.000000 0.000000 0.000000
vn -1.000000 0.000000 0.000000
vn -1.000000 0.000000 0.000000
vn -1.000000 0.000000 0.000000
vn -1.000000 0.000000 0.000000
vn -1.000000 0.000000 0.000000
vn -1.000000 0.000000 0.000000
vn -1.000000 0.000000 0.000000
vn -1.000000 0.000000 0.000000
vn -1.000000 0.000000 0.000000
vn -1.000000 0.000000 0.000000
vn -1.000000 0.000000 0.000000
vn -1.000000 0.000000 0.000000
vn -1.000000 0.000000 0.000000
vn 0.000000 0.761538 0.648120
vn 0.000000 0.761538 0.648120
vn 0.000000 0.761538 0.648120
vn 0.000000 0.761538 0.648120
vn 0.000000 -0.996760 0.080429
vn 0.000000 -0.996760 0.080429
vn 0.000000 -0.996760 0.080429
vn 0.000000 -0.996760 0.080429
vn 0.000000 0.759774 -0.650188
vn 0.000000 0.759774 -0.650188
vn 0.000000 0.759774 -0.650188
vn 0.000000 0.759774 -0.650188
vn 0.000000 -0.999817 -0.019128
vn 0.000000 -0.999817 -0.019128
vn 0.000000 -0.999817 -0.019128
vn 0.000000 -0.999817 -0.019128
vn 0.000000 0.544630 -0.838676
vn 0.000000 0.544630 -0.838676
vn 0.000000 0.544630 -0.838676
vn 0.000000 0.544630 -0.838676
vn 0.000000 -0.786334 0.617802
vn 0.000000 -0.786334 0.617802
vn 0.000000 -0.786334 0.617802
vn 0.000000 -0.786334 0.617802
vn 0.000000 -0.962636 0.270798
vn 0.000000 -0.962636 0.270798
vn 0.000000 -0.962636 0.270798
vn 0.000000 -0.962636 0.270798
vn 0.000000 0.970008 0.243072
vn 0.000000 0.970008 0.243072
vn 0.000000 0.970008 0.243072
vn 0.000000 0.970008 0.243072
vn 0.000000 -0.999999 0.001300
vn 0.000000 -0.999999 0.001300
vn 0.000000 -0.999999 0.001300
vn 0.000000 -0.999999 0.001300
vn 0.000000 0.879780 0.475381
vn 0.000000 0.879780 0.475381
vn 0.000000 0.879780 0.475381
vn 0.000000 0.879780 0.475381
vn 0.000000 -0.782372 -0.622811
vn 0.000000 -0.782372 -0.622811
vn 0.000000 -0.782372 -0.622811
vn 0.000000 -0.782372 -0.622811
vn 0.000000 1.000000 0.000623
vn 0.000000 1.000000 0.000623
vn 0.000000 1.000000 0.000623
vn 0.000000 1.000000 0.000623
vn 0.000000 0.997660 -0.068365
vn 0.000000 0.997660 -0.068365
vn 0.000000 0.997660 -0.068365
vn 0.000000 0.997660 -0.068365
vn 0.000000 0.881518 -0.472150
vn 0.000000 0.881518 -0.472150
vn 0.000000 0.881518 -0.472150
vn 0.000000 0.881518 -0.472150
vn 0.000000 -0.879691 0.475545
vn 0.000000 -0.879691 0.475545
vn 0.000000 -0.879691 0.475545
vn 0.000000 -0.879691 0.475545
vn 0.000000 -0.606548 0.795047
vn 0.000000 -0.606548 0.795047
vn 0.000000 -0.606548 0.795047
vn 0.000000 -0.606548 0.795047
vn 0.000000 0.971250 -0.238062
vn 0.000000 0.971250 -0.238062
vn 0.000000 0.971250 -0.238062
vn 0.000000 0.971250 -0.238062
vn 0.000000 -0.963057 -0.269299
vn 0.000000 -0.963057 -0.269299
vn 0.000000 -0.963057 -0.269299
vn 0.000000 -0.963057 -0.269299
vn 0.000000 -0.996981 -0.077650
vn 0.000000 -0.996981 -0.077650
vn 0.000000 -0.996981 -0.077650
vn 0.000000 -0.996981 -0.077650
vn 0.000000 0.997426 0.071699
vn 0.000000 0.997426 0.071699
vn 0.000000 0.997426 0.071699
vn 0.000000 0.997426 0.071699
vn 0.000000 -0.878016 -0.478631
vn 0.000000 -0.878016 -0.478631
vn 0.000000 -0.878016 -0.478631
vn 0.000000 -0.878016 -0.478631
vn 0.000000 0.552936 0.833224
vn 0.000000 0.552936 0.833224
vn 0.000000 0.552936 0.833224
vn 0.000000 0.552936 0.833224
vn 0.000000 -0.999414 0.034225
vn 0.000000 -0.999414 0.034225
vn 0.000000 -0.999414 0.034225
vn 0.000000 -0.999414 0.034225
vn 0.000000 -0.599579 -0.800315
vn 0.000000 -0.599579 -0.800315
vn 0.000000 -0.599579 -0.800315
vn 0.000000 -0.599579 -0.800315
s 1
g nurbsToPoly1
usemtl initialShadingGroup
f 27/25/1 28/53/2 29/54/3
f 30/55/4 31/56/5 32/17/6
f 33/15/7 34/14/8 35/12/9
f 36/57/10 35/58/9 34/14/8
f 37/59/11 38/60/12 36/57/10
f 33/61/7 39/62/13 34/14/8
f 31/56/5 40/63/14 41/10/15
f 42/20/16 43/64/17 44/65/18
f 45/66/19 30/55/4 46/8/20
f 47/18/21 44/65/18 28/53/2
f 48/67/22 49/68/23 27/25/1
f 48/67/22 27/25/1 29/54/3
f 50/69/24 46/70/20 30/55/4
f 30/55/4 32/71/6 50/69/24
f 35/58/9 41/72/15 40/63/14
f 35/58/9 40/63/14 33/61/7
f 36/57/10 34/14/8 39/62/13
f 39/62/13 37/59/11 36/57/10
f 41/72/15 32/71/6 31/56/5
f 44/65/18 47/73/21 42/74/16
f 43/64/17 42/74/16 45/66/19
f 46/70/20 43/64/17 45/66/19
f 28/53/2 27/25/1 49/68/23
f 49/68/23 47/73/21 28/53/2
f 29/54/3 51/75/25 52/76/26
f 29/54/3 52/76/26 48/67/22
s 8
f 25/27/27 26/29/28 23/28/29
f 7/30/30 17/32/31 16/31/32
f 15/33/33 12/35/34 14/34/35
f 13/36/36 14/34/35 12/35/34
f 2/37/37 13/36/36 5/38/38
f 15/33/33 14/34/35 11/39/39
f 16/31/32 10/41/40 9/40/41
f 20/42/42 19/44/43 21/43/44
f 4/45/45 8/46/46 7/30/30
f 18/47/47 23/28/29 19/44/43
f 22/48/48 25/27/27 24/49/49
f 22/48/48 26/29/28 25/27/27
f 6/50/50 7/30/30 8/46/46
f 7/30/30 6/50/50 17/32/31
f 12/35/34 9/40/41 10/41/40
f 12/35/34 15/33/33 9/40/41
f 13/36/36 11/39/39 14/34/35
f 11/39/39 13/36/36 2/37/37
f 10/41/40 16/31/32 17/32/31
f 19/44/43 20/42/42 18/47/47
f 21/43/44 4/45/45 20/42/42
f 8/46/46 4/45/45 21/43/44
f 23/28/29 24/49/49 25/27/27
f 24/49/49 23/28/29 18/47/47
f 26/29/28 3/52/51 1/51/52
f 26/29/28 22/48/48 3/52/51
s off
f 23/23/53 26/26/54 29/54/55 28/53/56
f 7/7/57 16/16/58 31/56/59 30/55/60
f 13/13/61 12/12/62 35/58/63 36/57/64
f 2/2/65 5/5/66 38/60/67 37/59/68
f 5/5/69 13/13/70 36/57/71 38/60/72
f 15/15/73 11/11/74 39/62/75 33/61/76
f 16/16/77 9/9/78 40/63/79 31/56/80
f 21/21/81 19/19/82 44/65/83 43/64/84
f 4/4/85 7/7/86 30/55/87 45/66/88
f 19/19/89 23/23/90 28/53/91 44/65/92
f 22/22/93 24/24/94 49/68/95 48/67/96
f 6/6/97 8/8/98 46/70/99 50/69/100
f 17/17/101 6/6/102 50/69/103 32/71/104
f 12/12/105 10/10/106 41/72/107 35/58/108
f 9/9/109 15/15/110 33/61/111 40/63/112
f 11/11/113 2/2/114 37/59/115 39/62/116
f 10/10/117 17/17/118 32/71/119 41/72/120
f 18/18/121 20/20/122 42/74/123 47/73/124
f 20/20/125 4/4/126 45/66/127 42/74/128
f 8/8/129 21/21/130 43/64/131 46/70/132
f 24/24/133 18/18/134 47/73/135 49/68/136
f 26/26/137 1/1/138 51/75/139 29/54/140
f 1/1/141 3/3/142 52/76/143 51/75/144
f 3/3/145 22/22/146 48/67/147 52/76/148
